<?xml version="1.0" ?><svg height="297.000000mm" version="1.0" viewBox="0 0 793 1122" width="210.000000mm" xmlns="http://www.w3.org/2000/svg">
  <g font-family="Helvetica" font-size="12pt" stroke-linecap="round">
    <text fill="#000000" font-family="helvetica" font-size="12pt" textLength="51" x="60.00" y="64.50">Alcohol</text>
    <text fill="#000000" font-family="helvetica" font-size="12pt" textLength="11" x="133.00" y="66.51">R</text>
    <text fill="#000000" font-family="helvetica" font-size="12pt" textLength="23" x="186.00" y="66.51">OH</text>
    <g stroke="#000000" stroke-width="1.0">
      <line x1="152.05" x2="178.50" y1="61.36" y2="61.25"/>
    </g>
    <text fill="#000000" font-family="helvetica" font-size="12pt" textLength="65" x="60.00" y="118.50">Aldehyde</text>
    <text fill="#000000" font-family="helvetica" font-size="12pt" textLength="48" x="60.00" y="212.51">Alkene</text>
    <text fill="#000000" font-family="helvetica" font-size="12pt" textLength="46" x="62.00" y="306.49">Alkyne</text>
    <text fill="#000000" font-family="helvetica" font-size="12pt" textLength="46" x="62.00" y="386.52">Amide</text>
    <text fill="#000000" font-family="helvetica" font-size="12pt" textLength="45" x="67.00" y="542.50">Amine</text>
    <text fill="#000000" font-family="helvetica" font-size="12pt" textLength="63" x="374.00" y="64.50">Aromatic</text>
    <text fill="#000000" font-family="helvetica" font-size="12pt" textLength="109" x="370.00" y="143.51">Carboxylic Acid</text>
    <text fill="#000000" font-family="helvetica" font-size="12pt" textLength="37" x="372.00" y="283.51">Ester</text>
    <text fill="#000000" font-family="helvetica" font-size="12pt" textLength="37" x="385.00" y="383.49">Ether</text>
    <text fill="#000000" font-family="helvetica" font-size="12pt" textLength="50" x="385.00" y="434.50">Ketone</text>
    <text fill="#000000" font-family="helvetica" font-size="12pt" textLength="40" x="389.00" y="552.51">Nitrile</text>
    <text fill="#000000" font-family="helvetica" font-size="12pt" textLength="33" x="390.00" y="596.49">Thiol</text>
    <g stroke="#000000" stroke-width="1.0">
      <line x1="177.71" x2="177.90" y1="128.46" y2="102.01"/>
      <line x1="181.71" x2="181.90" y1="128.49" y2="102.04"/>
    </g>
    <text fill="#000000" font-family="helvetica" font-size="12pt" textLength="12" x="175.00" y="144.50">C</text>
    <g stroke="#000000" stroke-width="1.0">
      <line x1="146.99" x2="169.92" y1="161.99" y2="148.76"/>
    </g>
    <g stroke="#000000" stroke-width="1.0">
      <line x1="189.91" x2="212.81" y1="149.78" y2="163.01"/>
    </g>
    <text fill="#000000" font-family="helvetica" font-size="12pt" textLength="11" x="138.00" y="179.49">R</text>
    <text fill="#000000" font-family="helvetica" font-size="12pt" textLength="11" x="209.00" y="179.49">H</text>
    <text fill="#000000" font-family="helvetica" font-size="12pt" textLength="12" x="174.00" y="240.51">C</text>
    <text fill="#000000" font-family="helvetica" font-size="12pt" textLength="12" x="224.00" y="240.51">C</text>
    <text fill="#000000" font-family="helvetica" font-size="12pt" textLength="11" x="265.00" y="220.48">R</text>
    <text fill="#000000" font-family="helvetica" font-size="12pt" textLength="11" x="131.00" y="216.52">R</text>
    <text fill="#000000" font-family="helvetica" font-size="12pt" textLength="11" x="133.00" y="262.50">R</text>
    <text fill="#000000" font-family="helvetica" font-size="12pt" textLength="11" x="265.00" y="265.49">R</text>
    <g stroke="#000000" stroke-width="1.0">
      <line x1="191.04" x2="217.49" y1="234.39" y2="234.28"/>
      <line x1="191.05" x2="217.50" y1="238.39" y2="238.28"/>
    </g>
    <g stroke="#000000" stroke-width="1.0">
      <line x1="167.01" x2="144.08" y1="227.02" y2="213.79"/>
    </g>
    <g stroke="#000000" stroke-width="1.0">
      <line x1="239.00" x2="261.89" y1="228.00" y2="214.78"/>
    </g>
    <g stroke="#000000" stroke-width="1.0">
      <line x1="167.01" x2="144.08" y1="245.00" y2="258.23"/>
    </g>
    <g stroke="#000000" stroke-width="1.0">
      <line x1="239.00" x2="261.89" y1="245.00" y2="258.23"/>
    </g>
    <text fill="#000000" font-family="helvetica" font-size="12pt" textLength="12" x="239.00" y="324.51">C</text>
    <text fill="#000000" font-family="helvetica" font-size="12pt" textLength="12" x="187.00" y="324.51">C</text>
    <text fill="#000000" font-family="helvetica" font-size="12pt" textLength="11" x="140.00" y="324.51">R</text>
    <text fill="#000000" font-family="helvetica" font-size="12pt" textLength="11" x="286.00" y="324.51">R</text>
    <g stroke="#000000" stroke-width="1.0">
      <line x1="205.03" x2="231.48" y1="319.37" y2="319.25"/>
      <line x1="208.31" x2="228.15" y1="314.85" y2="314.77"/>
      <line x1="208.35" x2="228.19" y1="323.85" y2="323.77"/>
    </g>
    <g stroke="#000000" stroke-width="1.0">
      <line x1="254.04" x2="280.49" y1="319.37" y2="319.25"/>
    </g>
    <g stroke="#000000" stroke-width="1.0">
      <line x1="157.04" x2="183.49" y1="319.37" y2="319.25"/>
    </g>
    <text fill="#000000" font-family="helvetica" font-size="12pt" textLength="11" x="222.00" y="459.52">N</text>
    <text fill="#000000" font-family="helvetica" font-size="12pt" textLength="12" x="171.00" y="437.49">C</text>
    <text fill="#000000" font-family="helvetica" font-size="12pt" textLength="12" x="171.00" y="389.50">O</text>
    <text fill="#000000" font-family="helvetica" font-size="12pt" textLength="11" x="133.00" y="467.49">R</text>
    <text fill="#000000" font-family="helvetica" font-size="12pt" textLength="11" x="224.00" y="510.49">R</text>
    <text fill="#000000" font-family="helvetica" font-size="12pt" textLength="11" x="271.00" y="442.52">R</text>
    <g stroke="#000000" stroke-width="1.0">
      <line x1="173.97" x2="173.63" y1="421.49" y2="395.04"/>
      <line x1="177.97" x2="177.63" y1="421.44" y2="394.99"/>
    </g>
    <g stroke="#000000" stroke-width="1.0">
      <line x1="188.89" x2="211.83" y1="436.77" y2="449.99"/>
    </g>
    <g stroke="#000000" stroke-width="1.0">
      <line x1="142.00" x2="164.90" y1="449.99" y2="436.77"/>
    </g>
    <g stroke="#000000" stroke-width="1.0">
      <line x1="226.72" x2="226.90" y1="492.46" y2="466.01"/>
    </g>
    <g stroke="#000000" stroke-width="1.0">
      <line x1="239.83" x2="262.73" y1="451.01" y2="437.79"/>
    </g>
    <text fill="#000000" font-family="helvetica" font-size="12pt" textLength="11" x="196.00" y="570.50">N</text>
    <text fill="#000000" font-family="helvetica" font-size="12pt" textLength="11" x="150.00" y="569.51">R</text>
    <text fill="#000000" font-family="helvetica" font-size="12pt" textLength="11" x="236.00" y="547.48">R</text>
    <text fill="#000000" font-family="helvetica" font-size="12pt" textLength="11" x="236.00" y="592.49">R</text>
    <g stroke="#000000" stroke-width="1.0">
      <line x1="206.01" x2="228.91" y1="555.98" y2="542.76"/>
    </g>
    <g stroke="#000000" stroke-width="1.0">
      <line x1="206.99" x2="229.89" y1="574.99" y2="588.21"/>
    </g>
    <g stroke="#000000" stroke-width="1.0">
      <line x1="165.05" x2="191.50" y1="564.48" y2="564.37"/>
    </g>
    <g stroke="#000000" stroke-width="1.0">
      <line x1="524.20" x2="547.10" y1="93.41" y2="106.63"/>
    </g>
    <g stroke="#000000" stroke-width="1.0">
      <line x1="570.00" x2="570.00" y1="66.99" y2="93.41"/>
    </g>
    <g stroke="#000000" stroke-width="1.0">
      <line x1="524.20" x2="524.20" y1="66.99" y2="93.41"/>
      <line x1="530.20" x2="530.20" y1="70.30" y2="90.11"/>
    </g>
    <g stroke="#000000" stroke-width="1.0">
      <line x1="570.00" x2="547.10" y1="93.41" y2="106.63"/>
      <line x1="564.14" x2="546.96" y1="89.86" y2="99.78"/>
    </g>
    <g stroke="#000000" stroke-width="1.0">
      <line x1="547.10" x2="570.00" y1="53.77" y2="66.99"/>
      <line x1="546.96" x2="564.14" y1="60.62" y2="70.54"/>
    </g>
    <g stroke="#000000" stroke-width="1.0">
      <line x1="524.20" x2="547.10" y1="66.99" y2="53.77"/>
    </g>
    <text fill="#000000" font-family="helvetica" font-size="12pt" textLength="12" x="542.00" y="194.49">C</text>
    <text fill="#000000" font-family="helvetica" font-size="12pt" textLength="12" x="542.00" y="143.51">O</text>
    <text fill="#000000" font-family="helvetica" font-size="12pt" textLength="11" x="507.00" y="222.49">R</text>
    <text fill="#000000" font-family="helvetica" font-size="12pt" textLength="23" x="576.00" y="221.50">OH</text>
    <g stroke="#000000" stroke-width="1.0">
      <line x1="543.71" x2="543.89" y1="176.45" y2="150.00"/>
      <line x1="547.71" x2="547.89" y1="176.47" y2="150.02"/>
    </g>
    <g stroke="#000000" stroke-width="1.0">
      <line x1="511.02" x2="533.92" y1="206.99" y2="193.77"/>
    </g>
    <g stroke="#000000" stroke-width="1.0">
      <line x1="559.91" x2="582.81" y1="193.77" y2="206.99"/>
    </g>
    <text fill="#000000" font-family="helvetica" font-size="12pt" textLength="11" x="624.00" y="320.50">R</text>
    <text fill="#000000" font-family="helvetica" font-size="12pt" textLength="11" x="512.00" y="346.50">R</text>
    <text fill="#000000" font-family="helvetica" font-size="12pt" textLength="12" x="546.00" y="269.49">O</text>
    <text fill="#000000" font-family="helvetica" font-size="12pt" textLength="12" x="587.00" y="345.52">O</text>
    <text fill="#000000" font-family="helvetica" font-size="12pt" textLength="12" x="546.00" y="317.48">C</text>
    <g stroke="#000000" stroke-width="1.0">
      <line x1="547.98" x2="547.63" y1="300.46" y2="274.05"/>
      <line x1="551.97" x2="551.63" y1="300.41" y2="274.00"/>
    </g>
    <g stroke="#000000" stroke-width="1.0">
      <line x1="518.01" x2="540.91" y1="329.98" y2="316.76"/>
    </g>
    <g stroke="#000000" stroke-width="1.0">
      <line x1="562.90" x2="585.80" y1="317.78" y2="331.01"/>
    </g>
    <g stroke="#000000" stroke-width="1.0">
      <line x1="596.83" x2="619.73" y1="331.01" y2="317.78"/>
    </g>
    <text fill="#000000" font-family="helvetica" font-size="12pt" textLength="11" x="510.00" y="387.50">R</text>
    <text fill="#000000" font-family="helvetica" font-size="12pt" textLength="11" x="622.00" y="388.52">R</text>
    <text fill="#000000" font-family="helvetica" font-size="12pt" textLength="12" x="566.00" y="388.52">O</text>
    <g stroke="#000000" stroke-width="1.0">
      <line x1="531.04" x2="557.49" y1="383.38" y2="383.26"/>
    </g>
    <g stroke="#000000" stroke-width="1.0">
      <line x1="587.04" x2="613.49" y1="383.38" y2="383.30"/>
    </g>
    <g stroke="#000000" stroke-width="1.0">
      <line x1="547.71" x2="547.90" y1="470.46" y2="444.01"/>
      <line x1="551.71" x2="551.90" y1="470.49" y2="444.04"/>
    </g>
    <text fill="#000000" font-family="helvetica" font-size="12pt" textLength="12" x="545.00" y="486.50">C</text>
    <g stroke="#000000" stroke-width="1.0">
      <line x1="517.97" x2="540.91" y1="504.97" y2="491.75"/>
    </g>
    <g stroke="#000000" stroke-width="1.0">
      <line x1="559.91" x2="582.81" y1="491.78" y2="505.01"/>
    </g>
    <text fill="#000000" font-family="helvetica" font-size="12pt" textLength="11" x="581.00" y="520.51">R</text>
    <text fill="#000000" font-family="helvetica" font-size="12pt" textLength="11" x="514.00" y="520.51">R</text>
    <text fill="#000000" font-family="helvetica" font-size="12pt" textLength="12" x="545.00" y="436.51">O</text>
    <text fill="#000000" font-family="helvetica" font-size="12pt" textLength="11" x="510.00" y="595.51">R</text>
    <text fill="#000000" font-family="helvetica" font-size="12pt" textLength="12" x="561.00" y="558.52">C</text>
    <text fill="#000000" font-family="helvetica" font-size="12pt" textLength="11" x="613.00" y="558.52">N</text>
    <text fill="#000000" font-family="helvetica" font-size="12pt" textLength="11" x="510.00" y="559.50">R</text>
    <text fill="#000000" font-family="helvetica" font-size="12pt" textLength="22" x="562.00" y="594.49">SH</text>
    <g stroke="#000000" stroke-width="1.0">
      <line x1="529.04" x2="555.49" y1="554.36" y2="554.24"/>
    </g>
    <g stroke="#000000" stroke-width="1.0">
      <line x1="530.06" x2="556.51" y1="590.37" y2="590.25"/>
    </g>
    <g stroke="#000000" stroke-width="1.0">
      <line x1="578.96" x2="605.41" y1="554.36" y2="554.28"/>
      <line x1="582.25" x2="602.09" y1="549.85" y2="549.79"/>
      <line x1="582.28" x2="602.11" y1="558.85" y2="558.79"/>
    </g>
  </g>
</svg>